<svg fill="none" viewBox="0 0 26 26" xmlns="http://www.w3.org/2000/svg"><linearGradient id="prefix__b" gradientUnits="userSpaceOnUse" x1="13" x2="13" y1=".325" y2="25.675"><stop offset="0" stop-color="#3747d6"/><stop offset="1" stop-color="#9545ed"/></linearGradient><clipPath id="prefix__a"><path d="M0 0h26v26H0z"/></clipPath><g clip-path="url(#prefix__a)" clip-rule="evenodd" fill="url(#prefix__b)" fill-rule="evenodd"><path d="M13 2.275C7.077 2.275 2.275 7.077 2.275 13S7.077 23.725 13 23.725 23.725 18.923 23.725 13c0-2.555-.892-4.899-2.383-6.741a.975.975 0 111.516-1.227A12.626 12.626 0 0125.675 13C25.675 20 20 25.675 13 25.675 6 25.675.325 20 .325 13 .325 6 6 .325 13 .325c1.48 0 2.902.254 4.225.722a.975.975 0 11-.65 1.838A10.706 10.706 0 0013 2.275z"/><path d="M13 7.475a2.925 2.925 0 100 5.85 2.925 2.925 0 000-5.85zM8.125 10.4a4.875 4.875 0 119.75 0 4.875 4.875 0 01-9.75 0zM13 18.525a8.118 8.118 0 00-6.875 3.793.975.975 0 11-1.649-1.041A10.068 10.068 0 0113 16.575c3.59 0 6.74 1.879 8.524 4.702a.975.975 0 11-1.649 1.04A8.119 8.119 0 0013 18.526z"/></g></svg>